<svg width="458" height="76" viewBox="0 0 458 76" fill="none" xmlns="http://www.w3.org/2000/svg">
<path d="M10.1288 74V14.6C10.1288 11.3 9.65208 8.66 8.69875 6.67999C7.81875 4.62666 5.72875 3.6 2.42875 3.6H0.22875V1.4H47.0888C49.6554 1.4 51.5988 1.84 52.9188 2.72C54.2388 3.52666 55.1554 4.62666 55.6688 6.02C56.1821 7.34 56.4388 8.73333 56.4388 10.2V18.45H54.2388C54.2388 14.05 53.0288 10.86 50.6088 8.88C48.2621 6.82667 44.8888 5.8 40.4888 5.8H20.0288V34.4H49.7288V38.8H20.0288V69.6H39.2788C44.2654 69.6 48.1888 68.6833 51.0488 66.85C53.9821 65.0167 56.2921 61.9 57.9788 57.5L60.1788 58.05L56.3288 68.5C55.7421 70.1867 54.7521 71.5433 53.3588 72.57C52.0388 73.5233 50.2788 74 48.0788 74H10.1288ZM123.302 75.1C120.808 75.1 118.498 74.6233 116.372 73.67C114.318 72.6433 112.265 70.9933 110.212 68.72C108.232 66.3733 106.032 63.1833 103.612 59.15L92.6116 40.45H84.9116V74H75.0116V14.6C75.0116 11.3 74.5349 8.66 73.5816 6.67999C72.7016 4.62666 70.6116 3.6 67.3116 3.6H65.1116V1.4H93.7116C95.5449 1.4 97.6716 1.54666 100.092 1.84C102.512 2.06 104.932 2.53666 107.352 3.27C109.845 4.00333 112.118 5.10333 114.172 6.57C116.298 8.03666 117.985 9.94333 119.232 12.29C120.552 14.6367 121.212 17.57 121.212 21.09C121.212 25.27 120.295 28.6433 118.462 31.21C116.702 33.7033 114.465 35.61 111.752 36.93C109.038 38.25 106.325 39.24 103.612 39.9L115.162 59.15C117.948 63.8433 120.442 67.07 122.642 68.83C124.842 70.5167 127.298 71.5067 130.012 71.8V74C129.425 74.2933 128.508 74.55 127.262 74.77C126.088 74.99 124.768 75.1 123.302 75.1ZM84.9116 36.6H92.8316C94.4449 36.6 96.2416 36.3067 98.2216 35.72C100.202 35.1333 102.108 34.2533 103.942 33.08C105.775 31.8333 107.278 30.22 108.452 28.24C109.625 26.26 110.212 23.84 110.212 20.98C110.212 18.12 109.625 15.7 108.452 13.72C107.278 11.74 105.775 10.1267 103.942 8.88C102.108 7.63333 100.202 6.71666 98.2216 6.13C96.2416 5.54333 94.4449 5.25 92.8316 5.25C91.6582 5.25 90.3016 5.36 88.7616 5.58C87.2949 5.8 86.0116 6.05667 84.9116 6.35V36.6ZM140.431 74V14.6C140.431 11.3 139.955 8.66 139.001 6.67999C138.121 4.62666 136.031 3.6 132.731 3.6H130.531V1.4H177.391C179.958 1.4 181.901 1.84 183.221 2.72C184.541 3.52666 185.458 4.62666 185.971 6.02C186.485 7.34 186.741 8.73333 186.741 10.2V18.45H184.541C184.541 14.05 183.331 10.86 180.911 8.88C178.565 6.82667 175.191 5.8 170.791 5.8H150.331V34.4H180.031V38.8H150.331V69.6H169.581C174.568 69.6 178.491 68.6833 181.351 66.85C184.285 65.0167 186.595 61.9 188.281 57.5L190.481 58.05L186.631 68.5C186.045 70.1867 185.055 71.5433 183.661 72.57C182.341 73.5233 180.581 74 178.381 74H140.431ZM228.084 75.1L202.564 14.27C200.804 10.1633 199.118 7.30333 197.504 5.68999C195.891 4.00333 193.544 3.01333 190.464 2.72V0.519995C190.758 0.519995 191.344 0.483329 192.224 0.409997C193.031 0.336664 193.691 0.299998 194.204 0.299998C196.038 0.299998 198.091 0.59333 200.364 1.17999C202.638 1.76666 204.911 3.05 207.184 5.03C209.531 7.01 211.584 10.09 213.344 14.27L232.154 58.6L256.354 1.4H261.634L230.064 75.1H228.084ZM323.197 74.55C321.584 74.55 319.604 74.2567 317.257 73.67C314.911 73.01 312.601 71.69 310.327 69.71C308.054 67.6567 306.111 64.5033 304.497 60.25L301.747 53.1H270.947L262.147 74H257.197L287.997 1.4H291.297L315.497 60.25C317.257 64.3567 318.944 67.2533 320.557 68.94C322.171 70.5533 324.517 71.5067 327.597 71.8V74C327.011 74.1467 326.314 74.2567 325.507 74.33C324.774 74.4767 324.004 74.55 323.197 74.55ZM272.597 48.7H299.547L286.347 16.8L272.597 48.7ZM336.262 74V14.6C336.262 11.3 335.785 8.66 334.832 6.67999C333.952 4.62666 331.862 3.6 328.562 3.6H326.362V1.4H336.262C338.828 1.4 340.808 1.73 342.202 2.39C343.668 3.05 344.695 4.33333 345.282 6.23999C345.868 8.14666 346.162 10.9333 346.162 14.6V69.6H385.212V74H336.262ZM395.558 74V14.6C395.558 11.3 395.082 8.66 394.128 6.67999C393.248 4.62666 391.158 3.6 387.858 3.6H385.658V1.4H414.478C428.998 1.4 439.815 4.62666 446.928 11.08C454.115 17.5333 457.708 26.26 457.708 37.26C457.708 44.3733 456.168 50.7167 453.088 56.29C450.082 61.79 445.572 66.1167 439.558 69.27C433.618 72.4233 426.212 74 417.338 74H395.558ZM417.008 70.15C422.435 70.15 427.312 68.83 431.638 66.19C435.965 63.55 439.375 59.81 441.868 54.97C444.435 50.0567 445.718 44.3 445.718 37.7C445.718 31.1733 444.472 25.49 441.978 20.65C439.485 15.81 436.075 12.0333 431.748 9.32C427.422 6.60667 422.435 5.25 416.788 5.25C415.175 5.25 413.415 5.39666 411.508 5.68999C409.675 5.98333 407.768 6.42333 405.788 7.01V68.72C407.255 69.0133 408.612 69.27 409.858 69.49C411.178 69.71 412.425 69.8933 413.598 70.04C414.845 70.1133 415.982 70.15 417.008 70.15Z" fill="#C8FFB4"/>
</svg>
