<svg width="577" height="76" viewBox="0 0 577 76" fill="none" xmlns="http://www.w3.org/2000/svg">
<path d="M58.871 0.639994C63.1976 0.639994 66.9376 0.529995 70.091 0.309998C70.091 2.07 69.9076 3.64666 69.541 5.04C67.4143 5.55333 65.691 6.8 64.371 8.77999C63.1243 10.76 61.6943 13.84 60.081 18.02C52.821 36.6467 45.1576 55.7133 37.091 75.22C35.8443 75.5133 34.4143 75.66 32.801 75.66C24.2943 52.7067 16.7043 33.3833 10.031 17.69C8.34428 13.73 7.09762 10.98 6.29095 9.44C5.48428 7.82666 4.67762 6.72666 3.87095 6.13999C3.13762 5.55333 2.07428 5.18667 0.680951 5.04C0.314284 3.57333 0.130951 1.99666 0.130951 0.309998C2.99095 0.529995 7.42762 0.639994 13.441 0.639994C18.1343 0.639994 22.571 0.529995 26.751 0.309998C26.751 1.77666 26.5676 3.35333 26.201 5.04C23.7076 5.18667 21.911 5.55333 20.811 6.13999C19.7843 6.65333 19.271 7.60666 19.271 9C19.271 10.6133 20.1143 13.3267 21.801 17.14C26.7876 28.9467 32.251 43.0267 38.191 59.38C44.571 44.86 50.0343 31.22 54.581 18.46C55.6076 15.5267 56.121 13.1067 56.121 11.2C56.121 9.36666 55.6443 7.97333 54.691 7.02C53.7376 5.99333 52.1976 5.33333 50.071 5.04C49.7043 3.64666 49.521 2.07 49.521 0.309998C52.7476 0.529995 55.8643 0.639994 58.871 0.639994ZM81.1511 75.22C81.1511 72.9467 81.3344 71.2967 81.7011 70.27C83.5344 70.1233 84.8911 69.83 85.7711 69.39C86.7244 68.95 87.3844 68.18 87.7511 67.08C88.1178 65.98 88.3011 64.33 88.3011 62.13V32.76C88.3011 30.6333 88.1178 29.02 87.7511 27.92C87.3844 26.82 86.7244 26.05 85.7711 25.61C84.8911 25.17 83.5344 24.8767 81.7011 24.73C81.3344 23.63 81.1511 21.98 81.1511 19.78C85.8444 19.9267 89.9511 20 93.4711 20C96.4044 20 100.438 19.9267 105.571 19.78C105.571 22.0533 105.424 23.7033 105.131 24.73C102.491 24.8767 100.694 25.4633 99.7411 26.49C98.8611 27.5167 98.4211 29.6067 98.4211 32.76V62.13C98.4211 65.2833 98.8611 67.41 99.7411 68.51C100.694 69.5367 102.491 70.1233 105.131 70.27C105.424 71.37 105.571 73.02 105.571 75.22C100.584 75.0733 96.5511 75 93.4711 75C89.8044 75 85.6978 75.0733 81.1511 75.22ZM154.304 45.19C160.097 45.5567 164.68 46.9133 168.054 49.26C171.5 51.5333 173.224 54.9067 173.224 59.38C173.224 64.1467 171.207 67.96 167.174 70.82C163.214 73.6067 157.237 75 149.244 75C138.464 75 129.48 75.0733 122.294 75.22C122.294 72.9467 122.477 71.2967 122.844 70.27C124.604 70.1233 125.96 69.83 126.914 69.39C127.867 68.95 128.527 68.1433 128.894 66.97C129.334 65.7967 129.554 64.0367 129.554 61.69V32.76C129.554 30.6333 129.334 29.02 128.894 27.92C128.527 26.82 127.867 26.05 126.914 25.61C126.034 25.17 124.677 24.8767 122.844 24.73C122.55 23.5567 122.404 21.9067 122.404 19.78C125.777 19.9267 129.114 20 132.414 20L140.554 19.89C142.094 19.8167 144.074 19.78 146.494 19.78C153.314 19.78 158.667 20.77 162.554 22.75C166.44 24.73 168.384 27.81 168.384 31.99C168.384 35.4367 167.1 38.37 164.534 40.79C162.04 43.21 158.63 44.6767 154.304 45.19ZM157.604 34.52C157.604 27.9933 153.13 24.73 144.184 24.73C142.644 24.73 141.14 24.8767 139.674 25.17V43.87H142.754C148.254 43.87 152.104 43.0633 154.304 41.45C156.504 39.8367 157.604 37.5267 157.604 34.52ZM147.704 70.16C157.09 70.16 161.784 66.97 161.784 60.59C161.784 52.9633 155.147 49.15 141.874 49.15H139.674V62.02C139.674 65.32 140.224 67.52 141.324 68.62C142.424 69.6467 144.55 70.16 147.704 70.16ZM234.742 59.38C236.722 59.7467 238.335 60.5533 239.582 61.8C238.262 65.2467 237.272 69.6833 236.612 75.11L215.382 75C204.822 75 196.315 75.0733 189.862 75.22C189.862 72.9467 190.045 71.2967 190.412 70.27C192.245 70.1233 193.602 69.83 194.482 69.39C195.435 68.95 196.095 68.1433 196.462 66.97C196.829 65.7967 197.012 64.0367 197.012 61.69V32.76C197.012 30.6333 196.792 29.02 196.352 27.92C195.985 26.82 195.325 26.05 194.372 25.61C193.492 25.17 192.172 24.8767 190.412 24.73C190.045 23.63 189.862 21.98 189.862 19.78C195.142 19.9267 200.899 20 207.132 20C220.625 20 229.645 19.9267 234.192 19.78C234.999 26.6733 235.695 31.22 236.282 33.42C235.035 34.2267 233.385 34.63 231.332 34.63C231.039 31.55 229.755 29.13 227.482 27.37C225.282 25.61 221.359 24.73 215.712 24.73H207.132V44.97H212.632C216.519 44.97 219.195 44.53 220.662 43.65C222.202 42.77 223.009 41.1567 223.082 38.81C224.695 38.2967 226.382 38.04 228.142 38.04C227.995 39.8733 227.922 42.9533 227.922 47.28C227.922 51.9733 227.995 55.1633 228.142 56.85C226.162 56.85 224.549 56.63 223.302 56.19C223.082 53.77 222.202 52.12 220.662 51.24C219.195 50.36 216.519 49.92 212.632 49.92H207.132V61.47C207.132 63.8167 207.352 65.6133 207.792 66.86C208.305 68.0333 209.149 68.8767 210.322 69.39C211.569 69.83 213.402 70.05 215.822 70.05H216.482C220.735 70.05 223.999 69.6833 226.272 68.95C228.619 68.2167 230.342 67.1533 231.442 65.76C232.615 64.2933 233.715 62.1667 234.742 59.38ZM303.477 20C306.337 20 309.601 19.9267 313.267 19.78C313.267 21.76 313.084 23.3367 312.717 24.51C309.784 25.0233 307.107 28.0667 304.687 33.64C298.894 46.4 292.147 60.2233 284.447 75.11C283.347 75.4767 281.917 75.66 280.157 75.66C273.337 60.8467 266.664 47.1333 260.137 34.52C258.524 31.2933 257.351 29.13 256.617 28.03C255.957 26.8567 255.261 26.0133 254.527 25.5C253.867 24.9867 252.951 24.6567 251.777 24.51C251.411 23.4833 251.227 21.9067 251.227 19.78C254.747 19.9267 258.781 20 263.327 20C266.187 20 270.257 19.9267 275.537 19.78C275.537 21.6133 275.354 23.19 274.987 24.51C273.081 24.6567 271.651 24.95 270.697 25.39C269.817 25.83 269.377 26.5633 269.377 27.59C269.377 28.91 270.074 30.8167 271.467 33.31C276.601 42.8433 281.184 52.23 285.217 61.47C291.231 49.7367 295.741 40.4967 298.747 33.75C299.627 31.77 300.067 30.0833 300.067 28.69C300.067 26.1967 298.527 24.8033 295.447 24.51C295.081 23.4833 294.897 21.9067 294.897 19.78C298.564 19.9267 301.424 20 303.477 20ZM371.49 59.38C373.47 59.7467 375.083 60.5533 376.33 61.8C375.01 65.2467 374.02 69.6833 373.36 75.11L352.13 75C341.57 75 333.063 75.0733 326.61 75.22C326.61 72.9467 326.793 71.2967 327.16 70.27C328.993 70.1233 330.35 69.83 331.23 69.39C332.183 68.95 332.843 68.1433 333.21 66.97C333.577 65.7967 333.76 64.0367 333.76 61.69V32.76C333.76 30.6333 333.54 29.02 333.1 27.92C332.733 26.82 332.073 26.05 331.12 25.61C330.24 25.17 328.92 24.8767 327.16 24.73C326.793 23.63 326.61 21.98 326.61 19.78C331.89 19.9267 337.647 20 343.88 20C357.373 20 366.393 19.9267 370.94 19.78C371.747 26.6733 372.443 31.22 373.03 33.42C371.783 34.2267 370.133 34.63 368.08 34.63C367.787 31.55 366.503 29.13 364.23 27.37C362.03 25.61 358.107 24.73 352.46 24.73H343.88V44.97H349.38C353.267 44.97 355.943 44.53 357.41 43.65C358.95 42.77 359.757 41.1567 359.83 38.81C361.443 38.2967 363.13 38.04 364.89 38.04C364.743 39.8733 364.67 42.9533 364.67 47.28C364.67 51.9733 364.743 55.1633 364.89 56.85C362.91 56.85 361.297 56.63 360.05 56.19C359.83 53.77 358.95 52.12 357.41 51.24C355.943 50.36 353.267 49.92 349.38 49.92H343.88V61.47C343.88 63.8167 344.1 65.6133 344.54 66.86C345.053 68.0333 345.897 68.8767 347.07 69.39C348.317 69.83 350.15 70.05 352.57 70.05H353.23C357.483 70.05 360.747 69.6833 363.02 68.95C365.367 68.2167 367.09 67.1533 368.19 65.76C369.363 64.2933 370.463 62.1667 371.49 59.38ZM436.485 62.13C438.465 65.0633 440.482 67.1533 442.535 68.4C444.662 69.5733 447.265 70.2333 450.345 70.38C450.345 72.5067 450.199 74.0467 449.905 75C443.672 75 438.392 75.2567 434.065 75.77C433.552 74.89 432.562 73.35 431.095 71.15L426.145 63.12C423.432 58.5733 419.839 54.87 415.365 52.01L411.845 52.12L408.655 52.01V62.02C408.655 64.44 408.839 66.2367 409.205 67.41C409.572 68.5833 410.159 69.39 410.965 69.83C411.845 70.27 413.165 70.5267 414.925 70.6C415.219 71.48 415.365 73.02 415.365 75.22C412.652 75.0733 408.655 75 403.375 75C399.489 75 395.492 75.0733 391.385 75.22C391.385 73.1667 391.569 71.6267 391.935 70.6C393.769 70.4533 395.125 70.16 396.005 69.72C396.959 69.28 397.619 68.51 397.985 67.41C398.352 66.31 398.535 64.66 398.535 62.46V32.65C398.535 29.4967 398.095 27.4067 397.215 26.38C396.335 25.3533 394.575 24.7667 391.935 24.62C391.569 23.52 391.385 21.9067 391.385 19.78C394.172 19.9267 398.205 20 403.485 20L411.405 19.89C415.219 19.7433 418.115 19.67 420.095 19.67C427.135 19.67 432.452 21.0267 436.045 23.74C439.639 26.4533 441.435 29.9367 441.435 34.19C441.435 38.4433 440.079 41.9633 437.365 44.75C434.652 47.4633 430.875 49.2967 426.035 50.25C427.869 51.35 429.372 52.6333 430.545 54.1C431.792 55.4933 433.772 58.17 436.485 62.13ZM412.835 46.62C418.115 46.62 422.442 45.7033 425.815 43.87C429.189 41.9633 430.875 39.2133 430.875 35.62C430.875 28.14 425.742 24.4 415.475 24.4C413.129 24.4 410.855 24.62 408.655 25.06V46.29C410.195 46.51 411.589 46.62 412.835 46.62ZM486.668 75.77C482.634 75.77 478.968 75.3667 475.668 74.56C472.441 73.7533 468.921 72.5433 465.108 70.93C465.914 66.0167 466.208 61.7633 465.988 58.17C467.601 57.6567 469.581 57.4 471.928 57.4C472.074 61.9467 473.504 65.2467 476.218 67.3C479.004 69.3533 482.891 70.38 487.878 70.38C492.131 70.38 495.468 69.72 497.888 68.4C500.381 67.08 501.628 65.32 501.628 63.12C501.628 61.58 501.004 60.26 499.758 59.16C498.584 57.9867 497.118 57.0333 495.358 56.3C493.671 55.4933 491.178 54.5033 487.878 53.33C483.331 51.79 479.664 50.36 476.878 49.04C474.164 47.6467 471.781 45.7767 469.728 43.43C467.748 41.01 466.758 38.0033 466.758 34.41C466.758 29.4967 468.591 25.7567 472.258 23.19C475.998 20.6233 481.094 19.34 487.548 19.34C490.994 19.34 494.404 19.67 497.778 20.33C501.224 20.99 503.901 21.8333 505.808 22.86C505.734 23.6667 505.698 24.9133 505.698 26.6C505.698 29.9 505.918 32.5033 506.358 34.41C504.818 35.2167 502.801 35.62 500.308 35.62C499.281 31.44 497.594 28.5433 495.248 26.93C492.974 25.2433 490.151 24.4 486.778 24.4C483.551 24.4 480.911 24.95 478.858 26.05C476.878 27.15 475.888 28.7633 475.888 30.89C475.888 33.31 477.061 35.2533 479.408 36.72C481.754 38.1867 485.421 39.8 490.408 41.56C494.661 43.0267 498.144 44.42 500.858 45.74C503.571 47.06 505.881 48.8567 507.788 51.13C509.694 53.33 510.648 56.1167 510.648 59.49C510.648 64.33 508.668 68.2533 504.708 71.26C500.748 74.2667 494.734 75.77 486.668 75.77ZM571.939 59.38C573.919 59.7467 575.533 60.5533 576.779 61.8C575.459 65.2467 574.469 69.6833 573.809 75.11L552.579 75C542.019 75 533.513 75.0733 527.059 75.22C527.059 72.9467 527.243 71.2967 527.609 70.27C529.443 70.1233 530.799 69.83 531.679 69.39C532.633 68.95 533.293 68.1433 533.659 66.97C534.026 65.7967 534.209 64.0367 534.209 61.69V32.76C534.209 30.6333 533.989 29.02 533.549 27.92C533.183 26.82 532.523 26.05 531.569 25.61C530.689 25.17 529.369 24.8767 527.609 24.73C527.243 23.63 527.059 21.98 527.059 19.78C532.339 19.9267 538.096 20 544.329 20C557.823 20 566.843 19.9267 571.389 19.78C572.196 26.6733 572.893 31.22 573.479 33.42C572.233 34.2267 570.583 34.63 568.529 34.63C568.236 31.55 566.953 29.13 564.679 27.37C562.479 25.61 558.556 24.73 552.909 24.73H544.329V44.97H549.829C553.716 44.97 556.393 44.53 557.859 43.65C559.399 42.77 560.206 41.1567 560.279 38.81C561.893 38.2967 563.579 38.04 565.339 38.04C565.193 39.8733 565.119 42.9533 565.119 47.28C565.119 51.9733 565.193 55.1633 565.339 56.85C563.359 56.85 561.746 56.63 560.499 56.19C560.279 53.77 559.399 52.12 557.859 51.24C556.393 50.36 553.716 49.92 549.829 49.92H544.329V61.47C544.329 63.8167 544.549 65.6133 544.989 66.86C545.503 68.0333 546.346 68.8767 547.519 69.39C548.766 69.83 550.599 70.05 553.019 70.05H553.679C557.933 70.05 561.196 69.6833 563.469 68.95C565.816 68.2167 567.539 67.1533 568.639 65.76C569.813 64.2933 570.913 62.1667 571.939 59.38Z" fill="black"/>
</svg>
